# xmcd
#
# Track frame offsets:
#	150
#	14284
#	23540
#	35981
#	46371
#	59087
#	67903
#	82000
#	91786
#	101915
#	112700
#	124605
#	134382
#	142236
#	152194
#	161197
#	171580
#	181919
#	191948
#	203961
#	213030
#	222937
#	235077
#	245100
#
# Disc length: 3415 seconds
#
# Revision: 1
# Processed by: cddbd v1.5.2PL0 Copyright (c) Steve Scherf et al.
# Submitted via: audiograbber 1.83.01
#
DISCID=660d5518
DTITLE=Wanda Jackson - Four Classic Albums Plus Bonus Singles and Live Tracks  (C
DTITLE=D1)
DYEAR=1958
DGENRE=Oldies
TTITLE0=Day Dreaming
TTITLE1=I Wanna Waltz
TTITLE2=Heartbreak Ahead
TTITLE3=Makin' Believe
TTITLE4=Here We Are Again
TTITLE5=Long Tall Sally
TTITLE6=Just Call Me Lonesome
TTITLE7=Let Me Go Lover
TTITLE8=Money Honey
TTITLE9=I Can't Make My Dreams Understand
TTITLE10=Happy Happy Birthday, Baby
TTITLE11=Let's Have A Party
TTITLE12=Rock Your Mama
TTITLE13=Fujiyama Mama
TTITLE14=You're The One For Me
TTITLE15=Did You Miss Me
TTITLE16=Cool Love
TTITLE17=Honey Bop
TTITLE18=Hot Dogs That Made Him Mad
TTITLE19=Baby Loves Him
TTITLE20=Mean Mean Man
TTITLE21=You've Turned To A Stranger
TTITLE22=Don'a Wan'a
TTITLE23=I Gotta Know
EXTD=
EXTT0=
EXTT1=
EXTT2=
EXTT3=
EXTT4=
EXTT5=
EXTT6=
EXTT7=
EXTT8=
EXTT9=
EXTT10=
EXTT11=
EXTT12=
EXTT13=
EXTT14=
EXTT15=
EXTT16=
EXTT17=
EXTT18=
EXTT19=
EXTT20=
EXTT21=
EXTT22=
EXTT23=
PLAYORDER=
